<svg xmlns="http://www.w3.org/2000/svg" width="27.731" height="27.731" viewBox="0 0 27.731 27.731">
  <g id="instagram" transform="translate(0.5 0.5)">
    <g id="Group_332" data-name="Group 332" transform="translate(0 0)">
      <g id="Group_331" data-name="Group 331">
        <path id="Path_312" data-name="Path 312" d="M18.378,0H8.353A8.354,8.354,0,0,0,0,8.353V18.378a8.354,8.354,0,0,0,8.353,8.353H18.378a8.354,8.354,0,0,0,8.353-8.353V8.353A8.354,8.354,0,0,0,18.378,0Zm5.847,18.378a5.854,5.854,0,0,1-5.847,5.847H8.353a5.854,5.854,0,0,1-5.847-5.847V8.353A5.854,5.854,0,0,1,8.353,2.506H18.378a5.854,5.854,0,0,1,5.847,5.847Z" transform="translate(0 0)" fill="#359eda" stroke="#359eda" stroke-width="1"/>
      </g>
    </g>
    <g id="Group_334" data-name="Group 334" transform="translate(6.683 6.683)">
      <g id="Group_333" data-name="Group 333">
        <path id="Path_313" data-name="Path 313" d="M134.683,128a6.683,6.683,0,1,0,6.683,6.683A6.683,6.683,0,0,0,134.683,128Zm0,10.859a4.177,4.177,0,1,1,4.177-4.177A4.183,4.183,0,0,1,134.683,138.859Z" transform="translate(-128 -128)" fill="#359eda"/>
      </g>
    </g>
    <g id="Group_336" data-name="Group 336" transform="translate(19.659 5.291)">
      <g id="Group_335" data-name="Group 335">
        <circle id="Ellipse_14" data-name="Ellipse 14" cx="0.89" cy="0.89" r="0.89" fill="#359eda"/>
      </g>
    </g>
  </g>
</svg>
