<svg xmlns="http://www.w3.org/2000/svg" width="82.583" height="61.938" viewBox="0 0 82.583 61.938">
  <path id="quote" d="M44.733,43.345c0-17.69,13.392-36.2,34.41-40.345l3.386,7.316C74.907,13.189,68.2,23.192,67.457,30.087A17.938,17.938,0,0,1,82.583,47.8c0,10.949-8.891,17.133-17.89,17.133C54.319,64.938,44.733,57.006,44.733,43.345ZM0,43.345C0,25.655,13.392,7.15,34.41,3L37.8,10.316c-7.622,2.873-14.325,12.876-15.071,19.772A17.938,17.938,0,0,1,37.851,47.8c0,10.949-8.891,17.133-17.89,17.133C9.587,64.938,0,57.006,0,43.345Z" transform="translate(82.583 64.938) rotate(180)" fill="#78c404"/>
</svg>
