<svg xmlns="http://www.w3.org/2000/svg" width="25.681" height="22.292" viewBox="0 0 25.681 22.292">
  <g id="vimeeo" transform="translate(0 -294.925)">
    <path id="iconmonstr-vimeo-1" d="M24.477,10.659c-2.613,5.582-8.921,13.182-12.908,13.182-3.929,0-4.5-8.379-6.643-13.956C3.87,7.14,3.189,7.77,1.209,9.156L0,7.6c2.887-2.538,5.776-5.486,7.551-5.65q3-.287,3.689,4.1c.608,3.845,1.457,9.812,2.94,9.812,1.156,0,4-4.734,4.15-6.427.26-2.478-1.822-2.553-3.63-1.779C17.563-1.711,29.462.014,24.477,10.659Z" transform="translate(-0.002 293.377)" fill="#359eda"/>
  </g>
</svg>
